<svg id="Capa_1" enable-background="new 0 0 512 512" height="512" viewBox="0 0 512 512" width="512" xmlns="http://www.w3.org/2000/svg"><path d="m130.012 331.145c-13.318 0-24.152 10.835-24.152 24.152 0 13.318 10.834 24.152 24.152 24.152s24.152-10.835 24.152-24.152c0-13.318-10.834-24.152-24.152-24.152zm0 33.304c-5.046 0-9.152-4.106-9.152-9.152s4.106-9.152 9.152-9.152 9.152 4.106 9.152 9.152-4.106 9.152-9.152 9.152z"/><path d="m73.032 148.026c-9.835 0-17.836 8.001-17.836 17.835v58.412c0 9.835 8.001 17.836 17.836 17.836h78.152c9.835 0 17.836-8.001 17.836-17.836v-58.412c0-9.834-8.001-17.835-17.836-17.835zm78.152 79.083h-78.152c-1.564 0-2.836-1.272-2.836-2.836v-13.946h83.824v13.946c0 1.564-1.272 2.836-2.836 2.836zm2.836-61.248v29.465h-83.824v-29.465c0-1.563 1.272-2.835 2.836-2.835h78.152c1.564 0 2.836 1.272 2.836 2.835z"/><path d="m438.222 242.109c9.835 0 17.836-8.001 17.836-17.836v-58.412c0-9.834-8.001-17.835-17.836-17.835h-78.152c-9.835 0-17.836 8.001-17.836 17.835v58.412c0 9.835 8.001 17.836 17.836 17.836zm-78.152-79.083h78.152c1.564 0 2.836 1.272 2.836 2.835v29.465h-83.824v-29.465c0-1.563 1.272-2.835 2.836-2.835zm-2.836 61.247v-13.946h83.824v13.946c0 1.564-1.272 2.836-2.836 2.836h-78.152c-1.564 0-2.836-1.272-2.836-2.836z"/><path d="m258.936 186.808c-14.347 0-26.019 11.672-26.019 26.019s11.672 26.019 26.019 26.019 26.019-11.672 26.019-26.019-11.672-26.019-26.019-26.019zm0 37.038c-6.076 0-11.019-4.943-11.019-11.019s4.943-11.019 11.019-11.019 11.019 4.943 11.019 11.019-4.943 11.019-11.019 11.019z"/><path d="m391.769 331.145c-13.318 0-24.152 10.835-24.152 24.152 0 13.318 10.835 24.152 24.152 24.152 13.318 0 24.152-10.835 24.152-24.152 0-13.318-10.835-24.152-24.152-24.152zm0 33.304c-5.046 0-9.152-4.106-9.152-9.152s4.106-9.152 9.152-9.152 9.152 4.106 9.152 9.152-4.106 9.152-9.152 9.152z"/><path d="m504.5 395.424h-74.99c8.969-8.441 15.114-19.84 16.862-32.627h56.795c4.142 0 7.5-3.358 7.5-7.5s-3.358-7.5-7.5-7.5h-17.288v-175.558c0-38.964-31.699-70.663-70.663-70.663h-190.87c-4.142 0-7.5 3.358-7.5 7.5s3.358 7.5 7.5 7.5h190.87c30.692 0 55.663 24.97 55.663 55.663v90.067h-152.841v-85.372c0-15.94-12.968-28.908-28.908-28.908h-59.114c-15.94 0-28.908 12.968-28.908 28.908v85.372h-102.23c-4.142 0-7.5 3.358-7.5 7.5s3.358 7.5 7.5 7.5h102.229v70.491h-16.492c-3.672-26.861-26.751-47.627-54.604-47.627s-50.932 20.767-54.604 47.627h-1.876c-30.693 0-55.663-24.97-55.663-55.663v-14.828h51.009c4.142 0 7.5-3.358 7.5-7.5s-3.358-7.5-7.5-7.5h-51.008v-90.067c0-30.693 24.97-55.663 55.663-55.663h120.814c4.142 0 7.5-3.358 7.5-7.5s-3.358-7.5-7.5-7.5h-120.814c-38.964 0-70.663 31.699-70.663 70.663v119.895c0 38.964 31.699 70.663 70.663 70.663h1.876c1.748 12.787 7.893 24.186 16.862 32.627h-84.77c-4.142 0-7.5 3.358-7.5 7.5s3.358 7.5 7.5 7.5h497c4.142 0 7.5-3.358 7.5-7.5s-3.358-7.5-7.5-7.5zm-112.731 0c-22.126 0-40.128-18.001-40.128-40.127s18.001-40.127 40.128-40.127c22.126 0 40.127 18.001 40.127 40.127s-18.001 40.127-40.127 40.127zm79.11-118.118v70.491h-24.507c-3.672-26.861-26.751-47.627-54.604-47.627s-50.932 20.767-54.604 47.627h-19.127v-70.491zm-254.772-100.372c0-7.669 6.239-13.908 13.908-13.908h59.114c7.669 0 13.908 6.239 13.908 13.908v170.863h-86.931v-170.863zm-126.223 178.363c0-22.126 18.001-40.127 40.127-40.127s40.127 18.001 40.127 40.127-18.001 40.127-40.127 40.127-40.127-18.001-40.127-40.127zm77.869 40.127c8.969-8.441 15.114-19.84 16.862-32.627h152.549c1.748 12.787 7.893 24.186 16.862 32.627z"/></svg>