<?xml version="1.0" encoding="iso-8859-1"?>
<!-- Generator: Adobe Illustrator 19.0.0, SVG Export Plug-In . SVG Version: 6.00 Build 0)  -->
<svg version="1.1" id="Layer_1" xmlns="http://www.w3.org/2000/svg" xmlns:xlink="http://www.w3.org/1999/xlink" x="0px" y="0px"
	 viewBox="0 0 512.002 512.002" style="enable-background:new 0 0 512.002 512.002;" xml:space="preserve">
<g>
	<g>
		<path d="M512,404.897c0-6.546-5.307-11.852-11.852-11.852c-6.545,0-11.852,5.306-11.852,11.852v39.648l-131.36-233.114
			L279.07,73.248l-9.625-17.967l14.676-27.398c3.09-5.769,0.917-12.953-4.852-16.044c-5.768-3.09-12.953-0.919-16.044,4.851
			L256,30.181l-7.226-13.49c-3.09-5.771-10.272-7.943-16.044-4.851c-5.771,3.091-7.942,10.273-4.851,16.044l14.676,27.398
			l-9.619,17.957l-77.873,138.194L23.704,444.544v-39.648c0-6.546-5.306-11.852-11.852-11.852S0,398.35,0,404.896v84.821
			c0,0.018,0.002,0.036,0.002,0.053c0,0.078,0.011,0.156,0.012,0.235c0.009,0.397,0.037,0.789,0.085,1.174
			c0.017,0.132,0.039,0.261,0.059,0.391c0.056,0.358,0.128,0.709,0.216,1.055c0.028,0.113,0.055,0.225,0.087,0.337
			c0.263,0.927,0.635,1.806,1.103,2.625c0.02,0.036,0.034,0.075,0.055,0.11c0.036,0.06,0.081,0.113,0.117,0.173
			c0.196,0.321,0.405,0.632,0.631,0.932c0.072,0.097,0.141,0.196,0.216,0.289c0.288,0.362,0.591,0.709,0.919,1.035
			c0.043,0.042,0.089,0.078,0.132,0.12c0.29,0.281,0.597,0.544,0.915,0.794c0.104,0.082,0.211,0.16,0.319,0.238
			c0.293,0.214,0.596,0.415,0.909,0.603c0.088,0.052,0.172,0.108,0.261,0.159c0.412,0.232,0.837,0.444,1.276,0.627
			c0.018,0.007,0.037,0.013,0.056,0.02c0.41,0.167,0.832,0.308,1.263,0.429c0.115,0.032,0.231,0.06,0.347,0.089
			c0.35,0.088,0.705,0.158,1.068,0.213c0.126,0.019,0.249,0.041,0.376,0.057c0.469,0.057,0.945,0.095,1.429,0.095h488.296
			c0.485,0,0.96-0.038,1.429-0.095c0.126-0.015,0.25-0.038,0.376-0.057c0.361-0.056,0.717-0.126,1.068-0.213
			c0.116-0.028,0.232-0.057,0.347-0.089c0.431-0.122,0.853-0.262,1.262-0.429c0.019-0.007,0.038-0.013,0.057-0.021
			c0.44-0.182,0.864-0.395,1.276-0.627c0.089-0.05,0.174-0.107,0.262-0.159c0.313-0.187,0.615-0.388,0.908-0.602
			c0.108-0.078,0.215-0.156,0.32-0.239c0.318-0.249,0.622-0.511,0.911-0.79c0.044-0.043,0.092-0.079,0.135-0.123
			c0.327-0.325,0.629-0.672,0.917-1.032c0.076-0.095,0.146-0.194,0.218-0.293c0.224-0.299,0.433-0.608,0.628-0.928
			c0.037-0.06,0.083-0.114,0.119-0.175c0.021-0.037,0.034-0.075,0.056-0.111c0.468-0.819,0.84-1.698,1.103-2.625
			c0.032-0.11,0.057-0.22,0.085-0.332c0.088-0.347,0.16-0.7,0.217-1.06c0.02-0.129,0.043-0.257,0.059-0.386
			c0.047-0.388,0.076-0.78,0.085-1.178c0.002-0.078,0.012-0.155,0.012-0.234c0-0.018,0.002-0.036,0.002-0.053v-84.82H512z
			 M244.148,477.618h-73.348l73.348-130.163V477.618z M244.148,299.171L143.452,477.866H32.134l140.18-248.766h71.834V299.171z
			 M256,169.819c-6.546,0-11.852,5.306-11.852,11.852v23.727h-58.477l56.296-99.904c0.8-0.801,1.504-1.723,2.066-2.772l9.682-18.074
			L256,80.591l2.279,4.045l9.687,18.085c0.563,1.05,1.267,1.972,2.067,2.774l56.295,99.903h-58.476v-23.727
			C267.852,175.125,262.545,169.819,256,169.819z M267.852,477.618V347.455l73.348,130.163H267.852z M368.548,477.865v0.001
			L267.852,299.171v-70.07h71.833l140.18,248.764H368.548z"/>
	</g>
</g>
<g>
	<g>
		<path d="M264.378,137.733c-0.545-0.545-1.15-1.043-1.801-1.47c-0.64-0.427-1.327-0.794-2.05-1.09
			c-0.711-0.296-1.457-0.521-2.215-0.676c-1.517-0.308-3.093-0.308-4.622,0c-0.759,0.154-1.505,0.379-2.216,0.676
			c-0.723,0.296-1.41,0.664-2.05,1.09c-0.652,0.427-1.256,0.924-1.802,1.47c-2.204,2.204-3.473,5.262-3.473,8.379
			c0,3.129,1.268,6.175,3.473,8.379c0.545,0.545,1.15,1.043,1.802,1.482c0.64,0.427,1.327,0.794,2.05,1.09
			c0.711,0.296,1.458,0.521,2.216,0.676c0.758,0.154,1.541,0.225,2.311,0.225c0.77,0,1.553-0.071,2.311-0.225
			c0.758-0.154,1.505-0.379,2.215-0.676c0.723-0.296,1.41-0.664,2.05-1.09c0.652-0.439,1.256-0.936,1.801-1.482
			c2.204-2.204,3.474-5.25,3.474-8.379C267.852,142.995,266.584,139.937,264.378,137.733z"/>
	</g>
</g>
<g>
	<g>
		<path d="M100.683,43.368c-4.046-0.238-7.945,1.594-10.324,4.881c-2.379,3.287-2.912,7.563-1.41,11.333
			c2.335,5.865,3.519,12.045,3.519,18.367c0,27.413-22.302,49.715-49.715,49.715c-0.913,0-1.896-0.034-3.096-0.107
			c-4.046-0.247-7.944,1.595-10.322,4.882c-2.378,3.287-2.911,7.562-1.409,11.332c11.19,28.117,37.967,46.285,68.217,46.285
			c40.484,0,73.42-32.936,73.42-73.419C169.562,77.915,139.307,45.733,100.683,43.368z M96.142,166.351
			c-14.612,0-28.03-6.264-37.272-16.767c32.757-7.365,57.3-36.687,57.3-71.636c0-2.334-0.109-4.654-0.327-6.958
			c17.71,7.661,30.015,25.324,30.015,45.646C145.858,144.05,123.556,166.351,96.142,166.351z"/>
	</g>
</g>
<g>
</g>
<g>
</g>
<g>
</g>
<g>
</g>
<g>
</g>
<g>
</g>
<g>
</g>
<g>
</g>
<g>
</g>
<g>
</g>
<g>
</g>
<g>
</g>
<g>
</g>
<g>
</g>
<g>
</g>
</svg>
